<svg width="1024" height="1024" viewBox="0 0 1024 1024" fill="none" xmlns="http://www.w3.org/2000/svg">
<g clip-path="url(#clip0_1_36)">
<path d="M702.089 638.178C771.727 638.178 828.178 581.726 828.178 512.089C828.178 442.452 771.727 386 702.089 386C632.453 386 576 442.452 576 512.089C576 581.726 632.453 638.178 702.089 638.178Z" fill="black"/>
<path d="M797.91 486.983L797.093 483.16L764.95 477.531L783.664 452.181L781.509 449.697L754.004 462.954L757.479 427.822L754.665 426.171L737.932 454.666L719.202 412.254H715.9L720.367 453.172L673.143 415.225L669.164 416.389L705.46 462.293L633.546 438.264L630.226 441.913L694.514 478.695L605.867 486.149L604.876 491.622L696.999 501.717L620.115 565.691L623.432 570.156L714.894 520.117L696.841 608.276H702.314L737.429 525.26L758.818 590.207L762.623 587.218L753.848 521.281L787.137 559.227L789.293 555.735L763.785 508.684L799.404 521.941L799.736 517.962L767.764 494.263L797.91 486.983Z" fill="#FED42B"/>
<g clip-path="url(#clip1_1_36)">
<path d="M523.028 157C591.04 157 654.777 176.241 708.921 209.638C764.798 244.074 810.448 293.534 840.092 352.412L851.995 375.986L582.084 507.724L855 640.503L844.021 663.73C815.129 724.746 769.306 776.286 712.619 812.167C657.724 846.95 592.658 867.058 523.028 867.058C424.968 867.058 336.211 827.305 272.012 763.054C207.756 698.803 168 609.995 168 512C168 413.947 207.756 325.197 272.012 261.004C336.211 196.753 424.968 157 523.028 157Z" fill="#262626"/>
<path fill-rule="evenodd" clip-rule="evenodd" d="M523.028 183.059C651.483 183.059 762.718 256.728 816.92 364.083L522.681 507.667L820.503 652.521C767.803 763.863 654.43 840.883 523.028 840.883C341.354 840.941 194.061 693.66 194.061 512C194.061 330.34 341.354 183.059 523.028 183.059Z" fill="#615FFF"/>
<path fill-rule="evenodd" clip-rule="evenodd" d="M516.152 284.058C540.999 284.058 561.166 304.223 561.166 329.069C561.166 353.914 540.999 374.079 516.152 374.079C491.304 374.079 471.138 353.914 471.138 329.069C471.08 304.223 491.247 284.058 516.152 284.058Z" fill="#262626"/>
</g>
</g>
<defs>
<clipPath id="clip0_1_36">
<rect width="1024" height="1024" fill="white"/>
</clipPath>
<clipPath id="clip1_1_36">
<rect width="687" height="710" fill="white" transform="translate(168 157)"/>
</clipPath>
</defs>
</svg>
